<svg xmlns="http://www.w3.org/2000/svg" viewBox="0 0 504 504"><circle cx="252" cy="252" r="252" fill="#ffd05b"/><path d="M355.8 94.5H106.3c-6.5 0-11.8 5.3-11.8 11.8v187.9c0 6.5 5.3 11.8 11.8 11.8h249.4c6.5 0 11.8-5.3 11.8-11.8V106.3c.1-6.5-5.2-11.8-11.7-11.8z" fill="#324a5e"/><path d="M336.3 118.1H125.8c-4.2 0-7.6 3.4-7.6 7.6v149c0 4.2 3.4 7.6 7.6 7.6h210.6c4.2 0 7.6-3.4 7.6-7.6v-149c0-4.2-3.5-7.6-7.7-7.6z" fill="#f6f6f6"/><path fill="#2b3b4e" d="M290 332.7l-9.7-26.7h-98.5l-9.7 26.7h-18.3v15.1h154.5v-15.1z"/><path d="M407.6 409.5h-90.8c-1 0-1.9-.8-1.9-1.9V276.2c0-1 .8-1.9 1.9-1.9h90.8c1 0 1.9.8 1.9 1.9v131.5c0 1-.8 1.8-1.9 1.8z" fill="#f1543f"/><path fill="#4cdbc4" d="M328 287.3h68.5v92.9H328z"/><circle cx="362.3" cy="394.8" r="9" fill="#324a5e"/><path d="M328 390.4h17.8v8.8H328zm50.7 0h17.8v8.8h-17.8z" fill="#e6e9ee"/><path fill="#f1543f" d="M134.1 129.2h33.6v25.3h-33.6z"/><path fill="#ff7058" d="M188 129.2h139.9v25.3H188z"/><path fill="#ffd05b" d="M134.1 207.1h33.6v25.3h-33.6z"/><path fill="#f9b54c" d="M188 207.1h139.9v25.3H188z"/><path fill="#4cdbc4" d="M134.1 246.1H188v25.3h-53.9z"/><path fill="#84dbff" d="M274 246.1h53.9v25.3H274z"/><path d="M204.1 246.1H258v25.3h-53.9zm-70-77.9H188v25.3h-53.9zm139.9 0h53.9v25.3H274zm-69.9 0H258v25.3h-53.9z" fill="#2c9984"/></svg>